<svg width="333.3150634765625px" height="122px" xmlns="http://www.w3.org/2000/svg" viewBox="83.34246826171875 14 333.3150634765625 122" style="background: none;" preserveAspectRatio="xMidYMid"><defs><filter id="editing-vintage" x="-100%" y="-100%" width="300%" height="300%"><feConvolveMatrix in="SourceGraphic" result="extrude" order="9,9" divisor="1" kernelMatrix="1,0,0,0,0,0,0,0,0,0,1,0,0,0,0,0,0,0,0,0,1,0,0,0,0,0,0,0,0,0,1,0,0,0,0,0,0,0,0,0,1,0,0,0,0,0,0,0,0,0,1,0,0,0,0,0,0,0,0,0,1,0,0,0,0,0,0,0,0,0,1,0,0,0,0,0,0,0,0,0,1"> </feConvolveMatrix><feFlood flood-color="#900" result="flood-extrude"></feFlood><feComposite operator="in" in="flood-extrude" in2="extrude" result="extrude-color"></feComposite><feOffset dx="5" dy="5" in="extrude-color" result="extrude-offset"></feOffset><feColorMatrix in="SourceGraphic" result="stroke" type="matrix" values="0 0 0 0 0 0 0 0 0 0 0 0 0 0 0 0 1 0 0 0 "></feColorMatrix><feColorMatrix in="SourceGraphic" result="fill" type="matrix" values="0 0 0 0 0 0 0 0 0 0 0 0 0 0 0 1 0 0 1 0 "></feColorMatrix><feConvolveMatrix in="stroke" result="inner-shadow" order="5,5" divisor="1" kernelMatrix="1 0 0 0 0 0 1 0 0 0 0 0 1 0 0 0 0 0 1 0 0 0 0 0 1 "></feConvolveMatrix><feOffset dx="1" dy="1" in="inner-shadow" result="offset"></feOffset><feComposite operator="in" in="offset" in2="SourceAlpha" result="comp"></feComposite><feFlood flood-color="#000" result="flood3"></feFlood><feComposite operator="in" in="flood3" in2="comp" result="comp2"></feComposite><feColorMatrix in="comp2" result="comp3" type="matrix" values="1 0 0 0 0 0 1 0 0 0 0 0 1 0 0 0 0 0 0.5 0 "></feColorMatrix><feFlood flood-color="#f00" result="flood1"></feFlood><feComposite operator="in" in="flood1" in2="fill" result="fill2"></feComposite><feFlood flood-color="#fff" result="flood2"></feFlood><feComposite operator="in" in="flood2" in2="stroke" result="stroke2"></feComposite><feMerge result="obj"><feMergeNode in="extrude-offset"></feMergeNode><feMergeNode in="fill2"></feMergeNode><feMergeNode in="comp3"></feMergeNode></feMerge><feConvolveMatrix in="SourceAlpha" result="shadow" order="9,9" divisor="1" kernelMatrix="1,0,0,0,0,0,0,0,0,0,1,0,0,0,0,0,0,0,0,0,1,0,0,0,0,0,0,0,0,0,1,0,0,0,0,0,0,0,0,0,1,0,0,0,0,0,0,0,0,0,1,0,0,0,0,0,0,0,0,0,1,0,0,0,0,0,0,0,0,0,1,0,0,0,0,0,0,0,0,0,1"></feConvolveMatrix><feOffset dx="15" dy="15" in="shadow" result="shadow-offset"></feOffset><feFlood flood-color="#444444" result="flood-shadow"></feFlood><feComposite operator="in" in="flood-shadow" in2="shadow-offset" result="shadow-color"></feComposite><feMerge><feMergeNode in="shadow-color"></feMergeNode><feMergeNode in="obj"></feMergeNode></feMerge></filter></defs><g transform="translate(-9,-9)"><g filter="url(#editing-vintage)"><g transform="translate(136.29676240682602, 97.39999961853027)"><path d="M27.84-9.86L27.84-9.86L27.84-9.86Q29.06-8.32 29.06-5.34L29.06-5.34L29.06-5.34Q29.06-2.37 26.78-0.54L26.78-0.54L26.78-0.54Q24.51 1.28 20.54 1.28L20.54 1.28L20.54 1.28Q18.24 1.28 14.66 0.77L14.66 0.77L14.66 0.77Q7.62-0.32 5.60-0.32L5.60-0.32L5.60-0.32Q3.58-0.32 2.75-0.22L2.75-0.22L2.75-0.22Q1.92-0.13 0.58 0L0.58 0L8.32-42.24L22.34-42.24L15.94-7.04L15.94-7.04Q16.77-6.91 17.54-6.91L17.54-6.91L19.14-6.91L19.14-6.91Q24.51-6.91 27.84-9.86ZM66.11-13.25L66.11-13.25L66.11-13.25Q67.78-12.03 67.78-9.44L67.78-9.44L67.78-9.44Q67.78-6.85 66.66-5.02L66.66-5.02L66.66-5.02Q65.54-3.20 63.36-1.79L63.36-1.79L63.36-1.79Q58.69 1.22 50.53 1.22L50.53 1.22L50.53 1.22Q42.37 1.22 37.92-3.04L37.92-3.04L37.92-3.04Q33.47-7.30 33.47-14.85L33.47-14.85L33.47-14.85Q33.47-25.54 39.04-33.66L39.04-33.66L39.04-33.66Q43.26-39.68 50.82-42.24L50.82-42.24L50.82-42.24Q54.72-43.52 58.56-43.52L58.56-43.52L58.56-43.52Q62.40-43.52 64.77-43.01L64.77-43.01L64.77-43.01Q67.14-42.50 68.93-41.47L68.93-41.47L68.93-41.47Q72.83-39.23 72.83-35.65L72.83-35.65L72.83-35.65Q72.83-32.38 69.76-29.95L69.76-29.95L69.76-29.95Q66.94-27.78 64.64-27.78L64.64-27.78L64.64-27.78Q62.34-27.78 61.38-28.10L61.38-28.10L61.38-28.10Q61.63-30.40 61.63-31.90L61.63-31.90L61.63-31.90Q61.63-33.41 61.57-34.50L61.57-34.50L61.57-34.50Q61.50-35.58 61.18-36.61L61.18-36.61L61.18-36.61Q60.54-38.98 58.59-38.98L58.59-38.98L58.59-38.98Q56.64-38.98 54.69-37.15L54.69-37.15L54.69-37.15Q52.74-35.33 51.07-32.26L51.07-32.26L51.07-32.26Q47.30-25.28 47.30-17.02L47.30-17.02L47.30-17.02Q47.30-13.06 49.54-10.78L49.54-10.78L49.54-10.78Q51.78-8.51 56.58-8.51L56.58-8.51L56.58-8.51Q60.16-8.51 63.55-10.88L63.55-10.88L63.55-10.88Q65.02-11.90 66.11-13.25ZM98.11-42.69L98.11-42.69L98.11-42.69Q113.79-42.69 113.79-31.62L113.79-31.62L113.79-31.62Q113.79-25.54 109.89-21.89L109.89-21.89L109.89-21.89Q106.05-18.24 99.33-18.24L99.33-18.24L99.33-18.24Q96.19-18.24 93.76-20.03L93.76-20.03L93.76-20.03Q92.61-20.80 91.84-21.82L91.84-21.82L91.84-21.82Q96.51-21.82 98.98-24.67L98.98-24.67L98.98-24.67Q101.44-27.52 101.44-33.09L101.44-33.09L101.44-33.09Q101.44-38.66 95.94-38.66L95.94-38.66L94.40-38.66L94.40-38.66Q94.02-38.66 93.70-38.59L93.70-38.59L86.34 0L72.45 0L80.32-41.92L80.32-41.92Q87.17-42.56 91.14-42.62L91.14-42.62L91.14-42.62Q95.10-42.69 98.11-42.69ZM126.66-0.32L126.66-0.32L134.72-42.24L134.72-42.24Q142.27-42.88 147.14-42.88L147.14-42.88L147.14-42.88Q152-42.88 155.14-42.46L155.14-42.46L155.14-42.46Q158.27-42.05 160.38-40.96L160.38-40.96L160.38-40.96Q164.61-38.91 164.61-33.28L164.61-33.28L164.61-33.28Q164.61-30.02 161.79-27.26L161.79-27.26L161.79-27.26Q159.17-24.77 156.29-24.19L156.29-24.19L156.29-24.19Q159.36-23.68 161.54-21.38L161.54-21.38L161.54-21.38Q163.84-18.94 163.84-15.17L163.84-15.17L163.84-15.17Q163.84-7.87 158.40-3.62L158.40-3.62L158.40-3.62Q152.96 0.64 142.27 0.64L142.27 0.64L142.27 0.64Q134.91 0.64 126.66-0.32ZM144.06-20.61L140.86-4.03L140.86-4.03Q141.44-3.97 141.57-3.97L141.57-3.97L142.14-3.97L142.14-3.97Q147.39-3.97 149.63-7.42L149.63-7.42L149.63-7.42Q151.30-10.11 151.30-15.04L151.30-15.04L151.30-15.04Q151.30-17.66 149.60-19.07L149.60-19.07L149.60-19.07Q147.90-20.48 144.06-20.61L144.06-20.61ZM153.79-33.22L153.79-33.22L153.79-33.22Q153.79-38.53 148.67-38.53L148.67-38.53L148.10-38.53L148.10-38.53Q147.84-38.53 147.46-38.46L147.46-38.46L144.90-24.96L145.54-24.96L145.54-24.96Q153.79-25.15 153.79-33.22ZM182.02 1.28L182.02 1.28L182.02 1.28Q167.94 1.28 167.94-11.97L167.94-11.97L167.94-11.97Q167.94-21.38 173.12-27.46L173.12-27.46L173.12-27.46Q178.62-33.92 188.16-33.92L188.16-33.92L188.16-33.92Q195.07-33.92 198.59-30.72L198.59-30.72L198.59-30.72Q202.11-27.52 202.11-20.80L202.11-20.80L202.11-20.80Q202.11-10.56 196.61-4.61L196.61-4.61L196.61-4.61Q191.23 1.28 182.02 1.28ZM183.68-26.56L183.68-26.56L183.68-26.56Q182.91-24.83 182.30-22.24L182.30-22.24L182.30-22.24Q181.70-19.65 180.93-15.55L180.93-15.55L180.93-15.55Q180.16-11.46 180.16-6.40L180.16-6.40L180.16-6.40Q180.16-4.74 180.70-3.65L180.70-3.65L180.70-3.65Q181.25-2.56 182.72-2.56L182.72-2.56L182.72-2.56Q184.19-2.56 185.12-3.26L185.12-3.26L185.12-3.26Q186.05-3.97 186.75-5.63L186.75-5.63L186.75-5.63Q188.03-8.58 189.06-14.05L189.06-14.05L189.06-14.05Q190.08-19.52 190.18-21.89L190.18-21.89L190.18-21.89Q190.27-24.26 190.27-26.02L190.27-26.02L190.27-26.02Q190.27-27.78 189.76-28.93L189.76-28.93L189.76-28.93Q189.25-30.08 187.81-30.08L187.81-30.08L187.81-30.08Q186.37-30.08 185.41-29.18L185.41-29.18L185.41-29.18Q184.45-28.29 183.68-26.56ZM206.91-6.40L206.91-6.40L206.91-6.40Q206.91-8.13 207.81-12.48L207.81-12.48L211.20-29.76L207.42-29.76L207.68-31.68L207.68-31.68Q215.36-33.98 222.78-39.62L222.78-39.62L225.86-39.62L224.32-32.64L229.31-32.64L228.74-29.76L223.81-29.76L220.54-12.48L220.54-12.48Q219.71-8.51 219.71-7.17L219.71-7.17L219.71-7.17Q219.71-4.10 222.40-3.46L222.40-3.46L222.40-3.46Q221.76-1.28 219.46 0L219.46 0L219.46 0Q217.15 1.28 213.89 1.28L213.89 1.28L213.89 1.28Q210.62 1.28 208.77-0.77L208.77-0.77L208.77-0.77Q206.91-2.82 206.91-6.40Z" fill="#f00" stroke="#0f0" stroke-width="1.8"></path></g></g><g><g transform="translate(136.00151246786118, 97.39999961853027)"><path d="M27.84-9.86L27.84-9.86L27.84-9.86Q29.06-8.32 29.06-5.34L29.06-5.34L29.06-5.34Q29.06-2.37 26.78-0.54L26.78-0.54L26.78-0.54Q24.51 1.28 20.54 1.28L20.54 1.28L20.54 1.28Q18.24 1.28 14.66 0.77L14.66 0.77L14.66 0.77Q7.62-0.32 5.60-0.32L5.60-0.32L5.60-0.32Q3.58-0.32 2.75-0.22L2.75-0.22L2.75-0.22Q1.92-0.13 0.58 0L0.58 0L8.32-42.24L22.34-42.24L15.94-7.04L15.94-7.04Q16.77-6.91 17.54-6.91L17.54-6.91L19.14-6.91L19.14-6.91Q24.51-6.91 27.84-9.86ZM66.11-13.25L66.11-13.25L66.11-13.25Q67.78-12.03 67.78-9.44L67.78-9.44L67.78-9.44Q67.78-6.85 66.66-5.02L66.66-5.02L66.66-5.02Q65.54-3.20 63.36-1.79L63.36-1.79L63.36-1.79Q58.69 1.22 50.53 1.22L50.53 1.22L50.53 1.22Q42.37 1.22 37.92-3.04L37.92-3.04L37.92-3.04Q33.47-7.30 33.47-14.85L33.47-14.85L33.47-14.85Q33.47-25.54 39.04-33.66L39.04-33.66L39.04-33.66Q43.26-39.68 50.82-42.24L50.82-42.24L50.82-42.24Q54.72-43.52 58.56-43.52L58.56-43.52L58.56-43.52Q62.40-43.52 64.77-43.01L64.77-43.01L64.77-43.01Q67.14-42.50 68.93-41.47L68.93-41.47L68.93-41.47Q72.83-39.23 72.83-35.65L72.83-35.65L72.83-35.65Q72.83-32.38 69.76-29.95L69.76-29.95L69.76-29.95Q66.94-27.78 64.64-27.78L64.64-27.78L64.64-27.78Q62.34-27.78 61.38-28.10L61.38-28.10L61.38-28.10Q61.63-30.40 61.63-31.90L61.63-31.90L61.63-31.90Q61.63-33.41 61.57-34.50L61.57-34.50L61.57-34.50Q61.50-35.58 61.18-36.61L61.18-36.61L61.18-36.61Q60.54-38.98 58.59-38.98L58.59-38.98L58.59-38.98Q56.64-38.98 54.69-37.15L54.69-37.15L54.69-37.15Q52.74-35.33 51.07-32.26L51.07-32.26L51.07-32.26Q47.30-25.28 47.30-17.02L47.30-17.02L47.30-17.02Q47.30-13.06 49.54-10.78L49.54-10.78L49.54-10.78Q51.78-8.51 56.58-8.51L56.58-8.51L56.58-8.51Q60.16-8.51 63.55-10.88L63.55-10.88L63.55-10.88Q65.02-11.90 66.11-13.25ZM98.11-42.69L98.11-42.69L98.11-42.69Q113.79-42.69 113.79-31.62L113.79-31.62L113.79-31.62Q113.79-25.54 109.89-21.89L109.89-21.89L109.89-21.89Q106.05-18.24 99.33-18.24L99.33-18.24L99.33-18.24Q96.19-18.24 93.76-20.03L93.76-20.03L93.76-20.03Q92.61-20.80 91.84-21.82L91.84-21.82L91.84-21.82Q96.51-21.82 98.98-24.67L98.98-24.67L98.98-24.67Q101.44-27.52 101.44-33.09L101.44-33.09L101.44-33.09Q101.44-38.66 95.94-38.66L95.94-38.66L94.40-38.66L94.40-38.66Q94.02-38.66 93.70-38.59L93.70-38.59L86.34 0L72.45 0L80.32-41.92L80.32-41.92Q87.17-42.56 91.14-42.62L91.14-42.62L91.14-42.62Q95.10-42.69 98.11-42.69ZM126.66-0.32L126.66-0.32L134.72-42.24L134.72-42.24Q142.27-42.88 147.14-42.88L147.14-42.88L147.14-42.88Q152-42.88 155.14-42.46L155.14-42.46L155.14-42.46Q158.27-42.05 160.38-40.96L160.38-40.96L160.38-40.96Q164.61-38.91 164.61-33.28L164.61-33.28L164.61-33.28Q164.61-30.02 161.79-27.26L161.79-27.26L161.79-27.26Q159.17-24.77 156.29-24.19L156.29-24.19L156.29-24.19Q159.36-23.68 161.54-21.38L161.54-21.38L161.54-21.38Q163.84-18.94 163.84-15.17L163.84-15.17L163.84-15.17Q163.84-7.87 158.40-3.62L158.40-3.62L158.40-3.62Q152.96 0.64 142.27 0.64L142.27 0.64L142.27 0.64Q134.91 0.64 126.66-0.32ZM144.06-20.61L140.86-4.03L140.86-4.03Q141.44-3.97 141.57-3.97L141.57-3.97L142.14-3.97L142.14-3.97Q147.39-3.97 149.63-7.42L149.63-7.42L149.63-7.42Q151.30-10.11 151.30-15.04L151.30-15.04L151.30-15.04Q151.30-17.66 149.60-19.07L149.60-19.07L149.60-19.07Q147.90-20.48 144.06-20.61L144.06-20.61ZM153.79-33.22L153.79-33.22L153.79-33.22Q153.79-38.53 148.67-38.53L148.67-38.53L148.10-38.53L148.10-38.53Q147.84-38.53 147.46-38.46L147.46-38.46L144.90-24.96L145.54-24.96L145.54-24.96Q153.79-25.15 153.79-33.22ZM182.02 1.28L182.02 1.28L182.02 1.28Q167.94 1.28 167.94-11.97L167.94-11.97L167.94-11.97Q167.94-21.38 173.12-27.46L173.12-27.46L173.12-27.46Q178.62-33.92 188.16-33.92L188.16-33.92L188.16-33.92Q195.07-33.92 198.59-30.72L198.59-30.72L198.59-30.72Q202.11-27.52 202.11-20.80L202.11-20.80L202.11-20.80Q202.11-10.56 196.61-4.61L196.61-4.61L196.61-4.61Q191.23 1.28 182.02 1.28ZM183.68-26.56L183.68-26.56L183.68-26.56Q182.91-24.83 182.30-22.24L182.30-22.24L182.30-22.24Q181.70-19.65 180.93-15.55L180.93-15.55L180.93-15.55Q180.16-11.46 180.16-6.40L180.16-6.40L180.16-6.40Q180.16-4.74 180.70-3.65L180.70-3.65L180.70-3.65Q181.25-2.56 182.72-2.56L182.72-2.56L182.72-2.56Q184.19-2.56 185.12-3.26L185.12-3.26L185.12-3.26Q186.05-3.97 186.75-5.63L186.75-5.63L186.75-5.63Q188.03-8.58 189.06-14.05L189.06-14.05L189.06-14.05Q190.08-19.52 190.18-21.89L190.18-21.89L190.18-21.89Q190.27-24.26 190.27-26.02L190.27-26.02L190.27-26.02Q190.27-27.78 189.76-28.93L189.76-28.93L189.76-28.93Q189.25-30.08 187.81-30.08L187.81-30.08L187.81-30.08Q186.37-30.08 185.41-29.18L185.41-29.18L185.41-29.18Q184.45-28.29 183.68-26.56ZM206.91-6.40L206.91-6.40L206.91-6.40Q206.91-8.13 207.81-12.48L207.81-12.48L211.20-29.76L207.42-29.76L207.68-31.68L207.68-31.68Q215.36-33.98 222.78-39.62L222.78-39.62L225.86-39.62L224.32-32.64L229.31-32.64L228.74-29.76L223.81-29.76L220.54-12.48L220.54-12.48Q219.71-8.51 219.71-7.17L219.71-7.17L219.71-7.17Q219.71-4.10 222.40-3.46L222.40-3.46L222.40-3.46Q221.76-1.28 219.46 0L219.46 0L219.46 0Q217.15 1.28 213.89 1.28L213.89 1.28L213.89 1.28Q210.62 1.28 208.77-0.77L208.77-0.77L208.77-0.77Q206.91-2.82 206.91-6.40Z" fill="none" stroke="#fff" stroke-width="2.1"></path></g></g></g><style>text {
  font-size: 64px;
  font-family: Arial Black;
  dominant-baseline: central;
  text-anchor: middle;
}</style></svg>